<svg width="34" height="36" viewBox="0 0 34 36" fill="none" xmlns="http://www.w3.org/2000/svg">
<path d="M16.9999 3C24.8242 3 31.1666 9.7155 31.1666 18C31.1666 26.2845 24.8242 33 16.9999 33C14.7389 33.0033 12.5103 32.4312 10.5017 31.332L5.08151 32.9325C4.77911 33.0219 4.45971 33.0245 4.15604 32.9401C3.85237 32.8557 3.57534 32.6874 3.35334 32.4523C3.13134 32.2173 2.97235 31.924 2.89266 31.6024C2.81297 31.2809 2.81545 30.9427 2.89985 30.6225L4.41285 24.888C3.3721 22.7594 2.83032 20.3969 2.83326 18C2.83326 9.7155 9.17568 3 16.9999 3ZM16.9999 5.25C13.8063 5.25 10.7434 6.5933 8.48519 8.98439C6.22694 11.3755 4.95826 14.6185 4.95826 18C4.95826 20.205 5.48668 22.3245 6.47835 24.2055L6.69085 24.6105L5.11551 30.5865L10.7638 28.9185L11.1463 29.1435C12.7533 30.0895 14.5436 30.6333 16.3799 30.7332C18.2162 30.8331 20.0497 30.4864 21.7399 29.7196C23.43 28.9529 24.9319 27.7866 26.1303 26.31C27.3287 24.8335 28.1918 23.0859 28.6535 21.2014C29.1152 19.3169 29.1632 17.3455 28.7937 15.4383C28.4243 13.5311 27.6473 11.7388 26.5223 10.1989C25.3972 8.65897 23.9541 7.41228 22.3035 6.55444C20.6529 5.69659 18.8387 5.25037 16.9999 5.25ZM12.3958 19.5H18.7679C19.0371 19.5001 19.2963 19.6084 19.493 19.803C19.6897 19.9976 19.8093 20.2639 19.8276 20.5483C19.846 20.8327 19.7617 21.1138 19.5918 21.3349C19.4219 21.5561 19.1791 21.7006 18.9124 21.7395L18.7679 21.75H12.3958C12.1266 21.7499 11.8674 21.6416 11.6707 21.447C11.474 21.2524 11.3544 20.9861 11.3361 20.7017C11.3177 20.4173 11.402 20.1362 11.5719 19.9151C11.7418 19.6939 11.9846 19.5494 12.2513 19.5105L12.3958 19.5ZM12.3958 14.25H21.6112C21.8803 14.2505 22.1392 14.359 22.3356 14.5537C22.532 14.7484 22.6514 15.0148 22.6695 15.2991C22.6877 15.5833 22.6033 15.8643 22.4334 16.0852C22.2636 16.3062 22.0208 16.4507 21.7543 16.4895L21.6112 16.5H12.3958C12.1266 16.4999 11.8674 16.3916 11.6707 16.197C11.474 16.0024 11.3544 15.7361 11.3361 15.4517C11.3177 15.1673 11.402 14.8862 11.5719 14.6651C11.7418 14.4439 11.9846 14.2994 12.2513 14.2605L12.3958 14.25Z" fill="black"/>
</svg>
