<svg width="46" height="45" viewBox="0 0 46 45" fill="none" xmlns="http://www.w3.org/2000/svg">
<g filter="url(#filter0_d_60_235)">
<path d="M28.5289 18.023V17.1065C28.5289 12.0768 24.3953 8 19.3022 8C14.2091 8 10.0756 12.0768 10.0756 17.1065V18.023C10.0773 19.117 9.74899 20.1885 9.12972 21.1105L7.61519 23.353C6.23325 25.4005 7.2885 28.1838 9.69289 28.8312C15.9756 30.5233 22.6289 30.5233 28.9116 28.8312C31.316 28.1838 32.3712 25.4005 30.9893 23.3543L29.4748 21.1118C28.855 20.19 28.5262 19.1184 28.5275 18.0243L28.5289 18.023Z" stroke="black" stroke-width="2.3" shape-rendering="crispEdges"/>
</g>
<path d="M13.1511 30.1001C14.0464 32.3725 16.4618 34.0001 19.3022 34.0001C22.1426 34.0001 24.558 32.3725 25.4533 30.1001" stroke="black" stroke-width="2.3" stroke-linecap="round"/>
<g filter="url(#filter1_d_60_235)">
<circle cx="23.1045" cy="8.5" r="3.5" fill="#FF7373"/>
</g>
<defs>
<filter id="filter0_d_60_235" x="0.848389" y="1.8501" width="44.9077" height="42.4004" filterUnits="userSpaceOnUse" color-interpolation-filters="sRGB">
<feFlood flood-opacity="0" result="BackgroundImageFix"/>
<feColorMatrix in="SourceAlpha" type="matrix" values="0 0 0 0 0 0 0 0 0 0 0 0 0 0 0 0 0 0 127 0" result="hardAlpha"/>
<feOffset dx="4" dy="4"/>
<feGaussianBlur stdDeviation="4.5"/>
<feComposite in2="hardAlpha" operator="out"/>
<feColorMatrix type="matrix" values="0 0 0 0 0 0 0 0 0 0 0 0 0 0 0 0 0 0 0.1 0"/>
<feBlend mode="normal" in2="BackgroundImageFix" result="effect1_dropShadow_60_235"/>
<feBlend mode="normal" in="SourceGraphic" in2="effect1_dropShadow_60_235" result="shape"/>
</filter>
<filter id="filter1_d_60_235" x="14.6045" y="0" width="25" height="25" filterUnits="userSpaceOnUse" color-interpolation-filters="sRGB">
<feFlood flood-opacity="0" result="BackgroundImageFix"/>
<feColorMatrix in="SourceAlpha" type="matrix" values="0 0 0 0 0 0 0 0 0 0 0 0 0 0 0 0 0 0 127 0" result="hardAlpha"/>
<feOffset dx="4" dy="4"/>
<feGaussianBlur stdDeviation="4.5"/>
<feComposite in2="hardAlpha" operator="out"/>
<feColorMatrix type="matrix" values="0 0 0 0 0 0 0 0 0 0 0 0 0 0 0 0 0 0 0.1 0"/>
<feBlend mode="normal" in2="BackgroundImageFix" result="effect1_dropShadow_60_235"/>
<feBlend mode="normal" in="SourceGraphic" in2="effect1_dropShadow_60_235" result="shape"/>
</filter>
</defs>
</svg>
